<svg id="bold" height="512" viewBox="0 0 24 24" width="512" xmlns="http://www.w3.org/2000/svg"><path d="m23 8c-.552 0-1-.447-1-1v-4c0-.552-.449-1-1-1h-4c-.552 0-1-.447-1-1s.448-1 1-1h4c1.654 0 3 1.346 3 3v4c0 .553-.448 1-1 1z"/><path d="m21 24h-4c-.552 0-1-.447-1-1s.448-1 1-1h4c.551 0 1-.448 1-1v-4c0-.553.448-1 1-1s1 .447 1 1v4c0 1.654-1.346 3-3 3z"/><path d="m7 24h-4c-1.654 0-3-1.346-3-3v-4c0-.553.448-1 1-1s1 .447 1 1v4c0 .552.449 1 1 1h4c.552 0 1 .447 1 1s-.448 1-1 1z"/><path d="m1 8c-.552 0-1-.447-1-1v-4c0-1.654 1.346-3 3-3h4c.552 0 1 .447 1 1s-.448 1-1 1h-4c-.551 0-1 .448-1 1v4c0 .553-.448 1-1 1z"/><path d="m18 11c-.552 0-1-.447-1-1v-3h-10v3c0 .553-.448 1-1 1s-1-.447-1-1v-3c0-1.103.897-2 2-2h10c1.103 0 2 .897 2 2v3c0 .553-.448 1-1 1z"/><path d="m21 14c0 .553-.448 1-1 1h-1v2c0 1.103-.897 2-2 2h-10c-1.103 0-2-.897-2-2v-2h-1c-.552 0-1-.447-1-1s.448-1 1-1h16c.552 0 1 .447 1 1z"/></svg>